<svg width="12" height="12" viewBox="0 0 12 12" fill="none" xmlns="http://www.w3.org/2000/svg">
<path d="M6.52539 7.40039H5.47559V4.09961H6.52539V7.40039Z" fill="currentColor"/>
<path fill-rule="evenodd" clip-rule="evenodd" d="M7.65332 1.90039H6.52832V2.3877C7.32703 2.48346 8.08293 2.79714 8.71484 3.29492L9.61328 2.39746L9.71875 2.50391L10.249 3.03418L10.3555 3.13965L9.45996 4.03418C10.0696 4.80684 10.4037 5.76313 10.4033 6.75C10.4033 9.17518 8.42805 11.1501 6.00293 11.1504C3.57759 11.1504 1.60156 9.17534 1.60156 6.75C1.60156 4.50337 3.29903 2.64483 5.47754 2.38477V1.90039H4.35254V0.849609H7.65332V1.90039ZM7.66602 9.82715C7.46772 9.93496 7.25804 10.0245 7.03906 10.0928C6.98431 10.1098 6.9289 10.1253 6.87305 10.1396C7.152 10.0677 7.4184 9.96175 7.66602 9.82715ZM6 3.40039C4.15304 3.40062 2.65039 4.90299 2.65039 6.75C2.65039 8.59701 4.15304 10.0994 6 10.0996C7.84693 10.0993 9.35059 8.59699 9.35059 6.75C9.35059 4.90301 7.84693 3.40066 6 3.40039ZM3.41016 9.10254C3.42828 9.12247 3.44725 9.14162 3.46582 9.16113C3.40842 9.10085 3.35284 9.03885 3.2998 8.97461L3.41016 9.10254ZM9.07715 8.41699C9.18493 8.21881 9.27355 8.00889 9.3418 7.79004C9.30765 7.89956 9.26798 8.00668 9.22363 8.11133C9.1793 8.21591 9.13107 8.31787 9.07715 8.41699ZM9.45996 6.21777C9.4156 5.92818 9.3346 5.65049 9.22363 5.38867C9.26798 5.49332 9.30765 5.60044 9.3418 5.70996C9.39308 5.87441 9.43333 6.04399 9.45996 6.21777ZM8.35156 4.16016C8.43438 4.23544 8.51357 4.31466 8.58887 4.39746C8.62676 4.43912 8.66334 4.48194 8.69922 4.52539C8.59193 4.39539 8.47622 4.27345 8.35156 4.16016Z" fill="currentColor"/>
</svg>
